<svg width="79" height="23" viewBox="0 0 79 23" fill="none" xmlns="http://www.w3.org/2000/svg">
<rect width="21" height="23" fill="#0D3B66"/>
<path d="M19.2841 2.66335L12.5589 21H8.09297L1.36778 2.66335H5.30832L10.3522 17.2434L15.3698 2.66335H19.2841Z" fill="white"/>
<path d="M31.7083 21.1839C29.992 21.1839 28.4158 20.7811 26.9797 19.9755C25.5435 19.1698 24.4052 18.0577 23.5645 16.6391C22.7239 15.203 22.3035 13.583 22.3035 11.7791C22.3035 9.99276 22.7239 8.39027 23.5645 6.97167C24.4052 5.53557 25.5435 4.4147 26.9797 3.60908C28.4158 2.80346 29.992 2.40065 31.7083 2.40065C33.4421 2.40065 35.0184 2.80346 36.437 3.60908C37.8731 4.4147 39.0027 5.53557 39.8258 6.97167C40.6665 8.39027 41.0868 9.99276 41.0868 11.7791C41.0868 13.583 40.6665 15.203 39.8258 16.6391C39.0027 18.0577 37.8731 19.1698 36.437 19.9755C35.0008 20.7811 33.4246 21.1839 31.7083 21.1839ZM31.7083 17.9001C32.8117 17.9001 33.7837 17.6549 34.6243 17.1645C35.465 16.6566 36.1217 15.9386 36.5946 15.0104C37.0674 14.0822 37.3039 13.0051 37.3039 11.7791C37.3039 10.5532 37.0674 9.48486 36.5946 8.57416C36.1217 7.64594 35.465 6.93665 34.6243 6.44627C33.7837 5.95589 32.8117 5.7107 31.7083 5.7107C30.605 5.7107 29.6242 5.95589 28.766 6.44627C27.9254 6.93665 27.2686 7.64594 26.7958 8.57416C26.3229 9.48486 26.0865 10.5532 26.0865 11.7791C26.0865 13.0051 26.3229 14.0822 26.7958 15.0104C27.2686 15.9386 27.9254 16.6566 28.766 17.1645C29.6242 17.6549 30.605 17.9001 31.7083 17.9001ZM49.2084 18.084H55.2506V21H45.5306V2.66335H49.2084V18.084ZM67.8074 21.1839C66.091 21.1839 64.5148 20.7811 63.0787 19.9755C61.6426 19.1698 60.5042 18.0577 59.6636 16.6391C58.8229 15.203 58.4026 13.583 58.4026 11.7791C58.4026 9.99276 58.8229 8.39027 59.6636 6.97167C60.5042 5.53557 61.6426 4.4147 63.0787 3.60908C64.5148 2.80346 66.091 2.40065 67.8074 2.40065C69.5412 2.40065 71.1174 2.80346 72.536 3.60908C73.9721 4.4147 75.1017 5.53557 75.9249 6.97167C76.7655 8.39027 77.1858 9.99276 77.1858 11.7791C77.1858 13.583 76.7655 15.203 75.9249 16.6391C75.1017 18.0577 73.9721 19.1698 72.536 19.9755C71.0999 20.7811 69.5237 21.1839 67.8074 21.1839ZM67.8074 17.9001C68.9107 17.9001 69.8827 17.6549 70.7234 17.1645C71.564 16.6566 72.2208 15.9386 72.6936 15.0104C73.1665 14.0822 73.4029 13.0051 73.4029 11.7791C73.4029 10.5532 73.1665 9.48486 72.6936 8.57416C72.2208 7.64594 71.564 6.93665 70.7234 6.44627C69.8827 5.95589 68.9107 5.7107 67.8074 5.7107C66.704 5.7107 65.7232 5.95589 64.8651 6.44627C64.0244 6.93665 63.3677 7.64594 62.8948 8.57416C62.4219 9.48486 62.1855 10.5532 62.1855 11.7791C62.1855 13.0051 62.4219 14.0822 62.8948 15.0104C63.3677 15.9386 64.0244 16.6566 64.8651 17.1645C65.7232 17.6549 66.704 17.9001 67.8074 17.9001Z" fill="#343A40"/>
</svg>
